<svg xmlns="http://www.w3.org/2000/svg" viewBox="0 0 32 32" role="img" aria-label="LMStudioClaw">
  <defs>
    <linearGradient id="g" x1="0" y1="0" x2="32" y2="32" gradientUnits="userSpaceOnUse">
      <stop offset="0" stop-color="#3b82f6"/>
      <stop offset="1" stop-color="#6366f1"/>
    </linearGradient>
  </defs>
  <rect width="32" height="32" rx="7" fill="url(#g)"/>
  <g stroke="#fff" stroke-width="1.7" stroke-linecap="round">
    <line x1="16" y1="10.2" x2="16" y2="4.6" transform="rotate(0 16 16)"/>
    <line x1="16" y1="10.2" x2="16" y2="4.6" transform="rotate(45 16 16)"/>
    <line x1="16" y1="10.2" x2="16" y2="4.6" transform="rotate(90 16 16)"/>
    <line x1="16" y1="10.2" x2="16" y2="4.6" transform="rotate(135 16 16)"/>
    <line x1="16" y1="10.2" x2="16" y2="4.6" transform="rotate(180 16 16)"/>
    <line x1="16" y1="10.2" x2="16" y2="4.6" transform="rotate(225 16 16)"/>
    <line x1="16" y1="10.2" x2="16" y2="4.6" transform="rotate(270 16 16)"/>
    <line x1="16" y1="10.2" x2="16" y2="4.6" transform="rotate(315 16 16)"/>
  </g>
  <circle cx="16" cy="16" r="4.2" fill="none" stroke="#fff" stroke-width="1.7"/>
</svg>
